# xmcd
#
# Track frame offsets: 
#        150
#        20716
#        40232
#        59461
#        83624
#        106449
#        125183
#        153642
#        167258
#        187598
#        204141
#        225990
#        247689
#        268053
#
# Disc length: 4159 seconds
#
# Revision: 0
# Processed by: cddbd v1.5.2PL0 Copyright (c) Steve Scherf et al.
# Submitted via: ExactAudioCopyFreeDBPlugin 1.0
#
DISCID=a8103d0e
DTITLE=Smoking Jackets - Blammo!
DYEAR=1997
DGENRE=Blues
TTITLE0=Don't You Go Upstairs
TTITLE1=Sweet Pepper Sauce
TTITLE2=Mr. Goober
TTITLE3=You're Bad (And You Won't Go Away)
TTITLE4=Pull the Buckle Tight
TTITLE5=Nothin' That She Wants
TTITLE6=Bad Luck
TTITLE7=Bean Snappin' Woman
TTITLE8=Sam
TTITLE9=I Don't Like Fish
TTITLE10=Ol' Blue
TTITLE11=Mercenary
TTITLE12=Lemonade
TTITLE13=Green Car Line
EXTD=
EXTT0=
EXTT1=
EXTT2=
EXTT3=
EXTT4=
EXTT5=
EXTT6=
EXTT7=
EXTT8=
EXTT9=
EXTT10=
EXTT11=
EXTT12=
EXTT13=
PLAYORDER=
